<svg width="212" height="194" viewBox="0 0 212 194" fill="none" xmlns="http://www.w3.org/2000/svg">
<path d="M185.088 132.415C178.804 132.415 172.524 132.478 166.24 132.377C164.457 132.348 163.374 132.895 162.547 134.445C156.752 145.284 149.444 155.102 140.519 163.614C131.521 172.198 122.043 180.284 110.601 185.778C107.937 187.059 105.561 186.972 102.98 185.519C81.0897 173.187 64.1518 156.09 52.0288 134.459C50.3193 131.412 48.4776 130.333 44.9215 130.4C32.5242 130.645 20.122 130.501 7.71985 130.472C6.98022 130.472 6.24059 130.184 5.50586 130.026C5.76546 129.224 5.84385 128.298 6.31407 127.646C10.6539 121.648 15.0181 115.669 19.4706 109.757C20.7882 108.006 20.8323 106.629 19.451 104.853C15.0524 99.201 10.791 93.443 6.51979 87.6946C6.02997 87.0372 5.83894 86.1639 5.51076 85.3914C6.32876 85.2378 7.14676 84.9451 7.96476 84.9451C16.2035 84.9115 24.4471 84.8923 32.6859 84.9547C34.2533 84.9643 35.0762 84.806 34.8705 82.9202C34.1504 76.2649 33.3569 69.6096 33.0043 62.9303C32.5487 54.2357 32.534 45.5219 32.2206 36.8177C32.1569 35.0279 32.6712 34.3753 34.5325 34.0395C45.4163 32.0817 56.3539 30.3015 67.1152 27.8112C80.0954 24.8026 92.1939 19.3421 104.018 13.373C106.315 12.2118 108.24 12.0678 110.616 13.229C122.137 18.8719 133.794 24.3324 146.294 27.5233C155.488 29.8697 164.927 31.3092 174.258 33.147C176.732 33.6364 180.048 33.3437 181.434 34.812C182.732 36.1843 182.1 39.4088 182.12 41.8224C182.223 56.2894 181.787 70.7372 179.622 85.0699C179.284 87.3251 180.18 87.3155 181.86 87.3059C189.364 87.2531 196.873 87.2675 204.377 87.3011C205.117 87.3059 205.856 87.5938 206.596 87.7522C206.297 88.3808 206.091 89.0717 205.69 89.6331C201.419 95.5783 197.177 101.543 192.788 107.406C191.539 109.076 191.407 110.271 192.714 112.022C197.147 117.948 201.404 124.004 205.685 130.035C206.111 130.635 206.253 131.436 206.522 132.142C205.822 132.233 205.126 132.406 204.426 132.406C197.98 132.425 191.534 132.415 185.088 132.415ZM170.967 53.3624C170.967 52.0045 170.957 50.6465 170.967 49.2886C171.006 45.09 171.006 45.0948 166.881 44.5622C165.995 44.4471 165.113 44.2935 164.227 44.1592C153.02 42.5037 141.866 40.5412 131.267 36.4866C124.14 33.7611 117.165 30.6326 110.209 27.5041C108.265 26.6308 106.771 26.5348 104.821 27.4945C95.0643 32.3169 85.072 36.6833 74.4331 39.2553C66.2238 41.237 57.8772 42.6861 49.5944 44.3751C47.6939 44.7638 45.0587 44.5718 44.1036 45.7186C43.1729 46.8366 43.9566 49.327 43.9909 51.2128C44.0007 51.7742 44.0301 52.3308 44.0399 52.8922C44.2162 64.317 44.8334 75.7083 47.0376 86.9604C50.0842 102.512 53.655 117.91 62.173 131.667C72.8902 148.979 86.4924 163.432 105.115 172.86C106.972 173.801 108.686 173.791 110.454 172.832C121.593 166.795 130.806 158.374 139.359 149.382C147.078 141.263 152.505 131.451 157.756 121.643C158.883 119.541 159.892 117.348 160.671 115.108C167.621 95.0937 170.785 74.4655 170.967 53.3624Z" fill="#122838"/>
<path d="M108.265 130.832C101.251 130.832 94.2316 130.841 87.2174 130.827C84.4059 130.822 83.5487 130.059 83.5389 127.271C83.4997 116.801 83.5046 106.331 83.534 95.8662C83.5438 93.2127 84.5626 92.3826 87.6289 92.3778C97.3371 92.3634 107.045 92.2866 116.753 92.4306C119.203 92.4689 119.849 91.7204 119.658 89.4652C119.457 87.0852 119.678 84.6716 119.585 82.2773C119.354 76.524 114.887 71.7401 109.715 71.6009C102.872 71.4234 98.0277 75.3436 97.3763 81.6391C97.151 83.8415 96.9697 86.2983 94.4325 86.8885C92.8063 87.2675 90.8421 86.7109 89.162 86.1783C88.4763 85.9624 87.8248 84.7436 87.6926 83.9039C86.0566 73.2947 95.9068 62.58 106.864 61.8987C119.815 61.0925 127.848 70.8956 128.935 79.3599C129.391 82.901 129.126 86.5334 129.136 90.1273C129.141 91.3317 129.117 92.1858 130.836 92.2962C132.682 92.4162 133.603 93.7213 133.603 95.6215C133.584 106.168 133.613 116.72 133.584 127.267C133.579 129.862 132.54 130.813 129.807 130.822C122.622 130.846 115.446 130.832 108.265 130.832ZM105.341 116.062C105.164 116.11 104.983 116.163 104.807 116.211C104.807 117.488 104.738 118.769 104.836 120.04C104.88 120.606 105.233 121.614 105.502 121.629C107.511 121.753 109.573 121.907 111.508 121.513C111.953 121.422 112.046 119.277 112.164 118.063C112.443 115.213 111.591 112.296 113.457 109.551C114.481 108.044 113.217 104.623 111.885 103.711C110.053 102.459 106.84 102.473 105.057 103.745C103.739 104.681 102.911 107.881 103.465 109.661C104.121 111.792 104.719 113.932 105.341 116.062Z" fill="#952E2E"/>
</svg>
